<?xml version="1.0" encoding="UTF-8" standalone="no"?>
<!-- Created with Inkscape (http://www.inkscape.org/) -->

<svg
   width="754.05951mm"
   height="177.39934mm"
   viewBox="0 0 754.0595 177.39932"
   version="1.1"
   id="svg5"
   xml:space="preserve"
   inkscape:export-filename="deye.svg"
   inkscape:export-xdpi="33.50959"
   inkscape:export-ydpi="33.50959"
   inkscape:version="1.2.2 (b0a8486, 2022-12-01)"
   sodipodi:docname="drawing.svg"
   xmlns:inkscape="http://www.inkscape.org/namespaces/inkscape"
   xmlns:sodipodi="http://sodipodi.sourceforge.net/DTD/sodipodi-0.dtd"
   xmlns="http://www.w3.org/2000/svg"
   xmlns:svg="http://www.w3.org/2000/svg"><sodipodi:namedview
     id="namedview7"
     pagecolor="#ffffff"
     bordercolor="#000000"
     borderopacity="0.25"
     inkscape:showpageshadow="2"
     inkscape:pageopacity="0.0"
     inkscape:pagecheckerboard="0"
     inkscape:deskcolor="#d1d1d1"
     inkscape:document-units="mm"
     showgrid="false"
     inkscape:zoom="0.35677605"
     inkscape:cx="1940.9935"
     inkscape:cy="-88.29068"
     inkscape:window-width="1720"
     inkscape:window-height="1387"
     inkscape:window-x="3255"
     inkscape:window-y="25"
     inkscape:window-maximized="0"
     inkscape:current-layer="layer1"
     inkscape:lockguides="false" /><defs
     id="defs2" /><g
     inkscape:label="Layer 1"
     inkscape:groupmode="layer"
     id="layer1"
     transform="translate(-9.7481073,-48.647498)"><g
       id="g372"
       transform="translate(-14.827355,2.1091637)"
       inkscape:export-filename="dfav.svg"
       inkscape:export-xdpi="33.50959"
       inkscape:export-ydpi="33.50959"><path
         style="fill:#717171;stroke-width:0.264583"
         d="m 110.95769,223.71978 c -0.13825,-0.12347 -1.56104,-0.74141 -3.16177,-1.37321 -4.37449,-1.72656 -13.753077,-6.52288 -18.46115,-9.44124 C 64.358635,197.42352 46.95892,175.91768 38.327486,149.86094 36.169497,143.34636 34.78698,137.66165 31.731982,122.74115 26.4063,96.730711 23.695842,73.62275 24.830794,63.905162 c 0.367371,-3.14547 0.585917,-3.86294 1.291738,-4.240686 1.400763,-0.749665 13.501786,-4.001865 22.142133,-5.950789 15.413358,-3.476651 27.581485,-5.221488 46.69896,-6.69635 8.332505,-0.642831 25.852105,-0.637767 34.263545,0.0099 19.30892,1.486762 31.59482,3.29279 48.15417,7.078668 6.02762,1.378063 14.37906,3.598759 18.52083,4.9248 2.29704,0.735425 2.39301,0.798007 2.71381,1.769608 0.61615,1.866153 0.88431,8.105512 0.59195,13.772771 -0.32603,6.319763 -0.39655,6.760779 -1.08108,6.760779 -1.01457,0 -14.13673,-2.422335 -14.37177,-2.653012 -0.13246,-0.130003 -0.31105,-1.932842 -0.39687,-4.006307 -0.15604,-3.769937 -0.15604,-3.769937 -1.34667,-4.121079 -0.65484,-0.193127 -7.02468,-1.826919 -14.1552,-3.630652 -16.43804,-4.158152 -21.97485,-5.110636 -35.32188,-6.076336 -16.44708,-1.190001 -27.70904,-1.125074 -44.31771,0.255492 -11.222972,0.932889 -16.202325,1.815045 -30.559376,5.413965 -14.469275,3.627054 -16.429033,4.153371 -16.781093,4.506764 -0.401039,0.402561 -0.341463,16.454858 0.08098,21.82054 2.394484,30.413302 10.592949,56.465762 24.187569,76.861452 10.909332,16.36701 25.909122,29.90635 41.87936,37.80177 5.10506,2.52386 4.63374,2.46719 7.94018,0.95461 14.16044,-6.47793 28.81728,-18.59475 39.50021,-32.65484 1.27826,-1.68236 3.17988,-4.33875 4.22583,-5.9031 1.04594,-1.56435 1.96657,-2.84427 2.04583,-2.84427 0.0793,0 2.36855,0.70293 5.08731,1.56207 2.71876,0.85913 5.985,1.87837 7.25831,2.26497 1.53172,0.46505 2.3151,0.83355 2.3151,1.08902 0,0.61488 -3.74401,6.35657 -6.71473,10.29748 -7.25377,9.62273 -17.06428,19.04443 -27.21737,26.13867 -7.59713,5.30833 -16.87897,10.45999 -24.40853,13.54736 -2.03729,0.83536 -3.81727,1.62391 -3.95552,1.75234 -0.32061,0.29785 -1.8127,0.30412 -2.14312,0.009 z M 106.473,198.03506 c -2.47071,-0.67678 -5.22563,-1.84436 -7.587342,-3.21565 -9.820263,-5.70197 -18.499281,-14.00578 -23.128016,-22.12816 -1.281449,-2.24865 -1.444787,-2.98656 -0.66108,-2.98656 0.27822,0 5.010954,0.95816 10.517188,2.12924 5.506233,1.17108 10.883762,2.31279 11.950065,2.53713 1.066303,0.22435 2.007389,0.33925 2.091306,0.25533 0.385499,-0.3855 1.923089,-21.31158 1.923089,-26.17266 0,-3.42247 -0.0278,-3.60938 -0.59531,-4.00824 -0.89091,-0.62612 -6.14292,-2.27197 -13.5599,-4.24933 -4.443278,-1.18457 -6.937902,-1.98234 -7.59953,-2.43029 -4.360664,-2.95238 -9.830615,-13.24682 -11.845787,-22.29377 -0.591839,-2.65701 -1.093971,-7.69966 -0.876713,-8.80439 0.0787,-0.40018 0.29583,-0.7276 0.482507,-0.7276 0.18668,0 6.15569,1.25649 13.264468,2.7922 7.10878,1.53572 20.604585,4.44419 29.990685,6.46328 9.38609,2.01908 22.12578,4.76064 28.31041,6.09234 6.18464,1.3317 11.3468,2.51978 11.47147,2.64018 0.12491,0.12062 -0.009,0.85361 -0.29879,1.63264 -0.96615,2.59931 -1.24736,5.09911 -1.24542,11.07102 0.002,4.53608 0.10061,6.14136 0.48933,7.92359 0.95062,4.35849 2.47685,8.32535 4.55653,11.84297 1.15709,1.95714 1.35371,2.45844 0.96425,2.45844 -0.16847,0 -16.01791,-3.84607 -25.57402,-6.20587 -1.44386,-0.35655 -2.71055,-0.59552 -2.81488,-0.53104 -0.10433,0.0645 -0.26854,1.5769 -0.36492,3.36093 -0.81049,15.00235 -2.57465,28.24332 -4.64474,34.8614 -1.39417,4.45716 -2.57095,5.89022 -6.08672,7.41225 -2.03067,0.87912 -6.44752,1.0149 -9.12813,0.28062 z m 64.19341,-33.39113 c -2.00025,-0.33223 -4.83936,-1.36156 -6.60277,-2.39386 -2.26047,-1.32327 -6.54512,-5.75083 -8.03483,-8.30282 -3.7137,-6.36189 -5.49941,-15.09174 -4.74525,-23.19823 0.1796,-1.93047 0.57938,-4.70058 0.88842,-6.15579 0.93519,-4.40373 1.95721,-3.63035 -8.12815,-6.15072 -8.25418,-2.06276 -15.26685,-3.79358 -46.963538,-11.59126 -7.348803,-1.80788 -17.927075,-4.41098 -23.507275,-5.78467 -5.580198,-1.373686 -10.223635,-2.575847 -10.31875,-2.671465 -0.350692,-0.352549 -0.0163,-3.860165 0.599363,-6.287211 0.794478,-3.131926 2.48811,-7.216386 3.874881,-9.344885 2.50262,-3.841168 8.223385,-7.935164 13.088443,-9.366583 1.232694,-0.362691 11.754184,0.543538 42.986256,3.70246 48.36226,4.891529 75.5601,8.571092 82.47356,11.157746 4.24227,1.587241 7.85227,5.667698 10.1319,11.452312 1.65931,4.210506 3.08577,11.145746 3.2398,15.751386 0.0662,1.9796 0.0662,1.9796 -5.31698,3.39201 -2.96074,0.77682 -5.55035,1.34825 -5.75468,1.26985 -0.26986,-0.10356 -0.37152,-0.64788 -0.37152,-1.9894 0,-2.21377 -0.66036,-7.47236 -1.21548,-9.67915 -1.36156,-5.41267 -4.53559,-10.528088 -8.83868,-14.244854 -1.87343,-1.61816 -5.6512,-3.450953 -8.29168,-4.022723 -2.6982,-0.584271 -7.35636,-0.416184 -10.36145,0.373888 -2.63677,0.693241 -6.86101,2.774292 -9.12812,4.496935 -1.85123,1.406631 -5.71351,5.257894 -5.49355,5.477864 0.0736,0.0736 1.13145,-0.617814 2.3507,-1.536561 9.33658,-7.035478 19.73361,-6.875217 27.41631,0.422597 2.51817,2.392024 3.96707,4.426234 5.61175,7.878784 5.219,10.95581 4.76902,25.51433 -1.17387,37.9791 -2.15011,4.50969 -4.57168,7.99558 -7.79108,11.21536 -6.4903,6.49107 -13.62832,9.3118 -20.62373,8.14989 z m 9.38938,-20.72656 c 3.29203,-1.62337 6.33311,-5.36307 7.80172,-9.59401 2.37355,-6.83799 1.35795,-14.01633 -2.53852,-17.94243 -1.91541,-1.92997 -3.4669,-2.59757 -6.08557,-2.61861 -1.78228,-0.0143 -2.36418,0.0989 -3.68337,0.71672 -3.37824,1.58212 -5.74091,4.07742 -7.57246,7.99753 -1.48691,3.18244 -1.92946,5.27046 -1.93471,9.12812 -0.005,3.56819 0.35085,5.2972 1.60347,7.79391 2.60338,5.18907 7.4622,6.95836 12.40944,4.51877 z"
         id="path376" /><path
         style="fill:#0164b2;stroke-width:0.264583"
         d="m 105.91389,197.61654 c -6.462344,-1.91161 -14.33104,-7.17464 -21.534006,-14.40315 -4.164301,-4.17907 -6.146702,-6.67575 -8.315455,-10.47267 -1.319363,-2.30985 -1.443355,-2.77067 -0.746117,-2.77298 0.254661,-7.9e-4 5.806456,1.13868 12.33732,2.53227 8.08487,1.72518 11.960575,2.44752 12.144643,2.26345 0.469375,-0.46938 2.045425,-21.00627 2.038465,-26.56244 -0.002,-1.77918 -0.0939,-3.3762 -0.20375,-3.54893 -0.48041,-0.75552 -5.299593,-2.34604 -14.21199,-4.69053 -3.055938,-0.80389 -6.184001,-1.77889 -6.95125,-2.16666 -2.576664,-1.30227 -4.991249,-4.47024 -7.980847,-10.47096 -1.99231,-3.99897 -3.686665,-8.8472 -4.483484,-12.82907 -0.627322,-3.13486 -0.954127,-7.48092 -0.601398,-7.9978 0.209357,-0.30679 2.165414,0.0431 11.589629,2.07325 6.235771,1.34328 15.445423,3.32491 20.465892,4.40362 5.020468,1.07871 11.033128,2.37598 13.361458,2.88282 2.32833,0.50684 10.90083,2.35465 19.05,4.10624 19.06143,4.09708 18.15161,3.8906 18.44768,4.18666 0.1629,0.1629 0.14574,0.45763 -0.0477,0.81904 -1.22443,2.28786 -1.98465,11.76381 -1.34895,16.81423 0.68314,5.42732 2.69027,11.13281 5.45974,15.51993 0.34697,0.54963 0.54367,1.05186 0.43711,1.11607 -0.19917,0.12002 -0.84266,-0.0306 -17.25936,-4.0413 -9.22645,-2.25405 -10.34061,-2.50006 -11.00787,-2.43049 -0.18768,0.0196 -0.3578,1.33212 -0.47545,3.66849 -0.71693,14.23638 -2.55479,28.1691 -4.55137,34.50358 -1.49615,4.74678 -2.72122,6.17048 -6.53096,7.58995 -2.20126,0.82015 -6.13181,0.78007 -9.082,-0.0926 z m 64.1914,-33.34006 c -3.73474,-0.76311 -6.65435,-2.33702 -9.69757,-5.22778 -7.72399,-7.33704 -10.85669,-20.88679 -7.96608,-34.45547 0.31001,-1.45521 0.57139,-2.99688 0.58084,-3.42594 0.0191,-0.86661 2.22475,-0.25443 -25.25052,-7.00825 -4.29287,-1.05525 -14.23458,-3.50066 -22.09271,-5.43426 -7.858125,-1.93359 -20.520213,-5.0478 -28.137978,-6.92046 C 66.235441,99.025027 63.640466,98.305474 63.41685,97.887787 63.05254,97.2073 63.590944,93.529467 64.462682,90.743728 67.022899,82.562256 70.626289,78.237617 77.6099,74.964989 c 3.771567,-1.767414 3.265831,-1.745057 14.972475,-0.661903 12.009645,1.111189 23.989845,2.271009 31.617705,3.060954 2.91042,0.301405 7.07761,0.723926 9.26042,0.93894 4.76097,0.468966 12.47081,1.294969 17.19792,1.842519 1.89177,0.219128 7.07099,0.819208 11.50937,1.333513 21.04253,2.438339 36.69984,4.839615 42.46563,6.512724 6.03879,1.752327 9.93351,6.310683 12.56162,14.702024 1.31372,4.1946 2.76619,13.82124 2.17462,14.41282 -0.24331,0.24331 -9.86288,2.85181 -10.52873,2.85504 -0.18413,7.9e-4 -0.35433,-1.11779 -0.46508,-3.05696 -0.42961,-7.52194 -1.80556,-12.22084 -5.02008,-17.143705 -2.93095,-4.488592 -7.09573,-7.823544 -11.68693,-9.35832 -1.92363,-0.643041 -2.47862,-0.707059 -6.08542,-0.701945 -3.24896,0.0046 -4.35264,0.110625 -6.08542,0.584584 -2.66324,0.728461 -5.9524,2.29227 -8.4437,4.014504 -2.73669,1.891874 -8.26128,7.591252 -7.80283,8.049702 0.0613,0.0613 0.82476,-0.48535 1.69667,-1.21469 4.17411,-3.491605 7.30034,-5.284612 11.02853,-6.325276 2.83782,-0.792128 7.41476,-0.867381 10.00362,-0.164473 9.78116,2.655694 16.45895,12.759569 17.5021,26.481639 1.01298,13.32519 -4.3619,27.97391 -13.30076,36.24992 -6.18566,5.72697 -13.50518,8.24256 -20.07634,6.89988 z m 9.72145,-19.97458 c 4.26843,-1.96743 7.41321,-6.28821 8.93071,-12.27036 2.21907,-8.74785 -1.51547,-17.23359 -8.11707,-18.44384 -3.273,-0.60003 -6.43943,0.62501 -9.34446,3.61521 -3.7734,3.88404 -5.42396,8.28949 -5.42396,14.47686 0,3.23472 0.0803,3.90803 0.67938,5.6991 2.23255,6.67426 7.66679,9.50818 13.2754,6.92303 z"
         id="path374" /></g><g
       aria-label="Digital"
       id="text487"
       style="font-size:130.326px;font-family:'IBM 3270 Semi-Narrow';-inkscape-font-specification:'IBM 3270 Semi-Narrow';fill:#717171;stroke-width:1.52725"><path
         d="m 218.63638,91.50071 h 21.24314 q 9.38347,0 17.72433,3.25815 8.34087,3.127824 14.59652,9.12282 6.25564,5.995 9.90477,14.46619 3.64913,8.34086 3.64913,18.89727 0,7.68923 -2.73685,15.76944 -2.60652,8.08022 -8.60151,14.72684 -5.995,6.5163 -15.63912,10.81706 -9.5138,4.17043 -23.32836,4.17043 h -16.81205 z m 10.81706,10.29575 v 70.50637 h 9.12282 q 7.68923,0 14.33586,-2.47619 6.64662,-2.4762 11.46869,-7.03761 4.95238,-4.69173 7.68923,-11.07771 2.86717,-6.5163 2.86717,-14.59651 0,-8.08021 -2.86717,-14.59651 -2.73685,-6.5163 -7.68923,-11.07771 -4.82207,-4.69174 -11.46869,-7.16793 -6.64663,-2.4762 -14.33586,-2.4762 z"
         style="font-weight:bold;font-family:'Josefin Sans';-inkscape-font-specification:'Josefin Sans Bold'"
         id="path1284" /><path
         d="m 302.17515,114.95939 q 0,-2.9975 2.08522,-4.95239 2.08521,-1.95489 4.69173,-1.95489 2.4762,0 4.56141,1.95489 2.08522,1.95489 2.08522,4.95239 0,2.9975 -2.08522,4.95239 -2.08521,1.82456 -4.56141,1.82456 -2.60652,0 -4.69173,-1.82456 -2.08522,-1.95489 -2.08522,-4.95239 z m 11.98999,67.76952 h -10.81705 v -48.87225 h 10.81705 z"
         style="font-weight:bold;font-family:'Josefin Sans';-inkscape-font-specification:'Josefin Sans Bold'"
         id="path1286" /><path
         d="m 339.18759,158.22762 q 0,6.38598 4.17043,10.81706 4.30076,4.30076 11.07771,4.30076 6.77696,0 10.94739,-4.30076 4.30076,-4.43108 4.30076,-10.81706 0,-6.5163 -4.30076,-10.68673 -4.17043,-4.30076 -10.94739,-4.30076 -6.77695,0 -11.07771,4.30076 -4.17043,4.17043 -4.17043,10.68673 z m 32.32085,-24.37096 h 8.99249 v 50.95747 5.73434 q 0,5.21304 -2.08521,9.64413 -1.95489,4.56141 -5.47369,7.81956 -3.51881,3.38847 -8.21054,5.34336 -4.69174,1.95489 -10.16543,1.95489 -5.86467,0 -11.33836,-2.60652 -5.47369,-2.47619 -9.38347,-5.21304 1.82456,-2.21554 3.5188,-4.43108 1.82456,-2.21554 3.64913,-4.43109 2.60652,1.95489 5.99499,3.64913 3.5188,1.82457 7.29826,1.82457 3.38847,0 6.12532,-1.17294 2.86717,-1.17293 4.95239,-3.25815 2.08521,-1.95489 3.12782,-4.82206 1.17294,-2.73685 1.17294,-5.995 v -8.73184 q 0.26065,-0.65163 0.5213,-1.17293 0.39098,-0.65163 0.65163,-1.30326 -0.39098,0.5213 -1.69424,1.56391 -1.30326,1.04261 -3.38847,2.08522 -2.08522,0.91228 -4.95239,1.69423 -2.86717,0.78196 -6.38598,0.78196 -5.47369,0 -10.29575,-1.95489 -4.82206,-2.08522 -8.34086,-5.47369 -3.51881,-3.5188 -5.60402,-8.08021 -1.95489,-4.69174 -1.95489,-9.90478 0,-5.08271 1.95489,-9.77445 2.08521,-4.69174 5.60402,-8.21054 3.5188,-3.5188 8.34086,-5.60402 4.82206,-2.08521 10.29575,-2.08521 3.51881,0 6.5163,1.0426 2.9975,1.04261 5.21304,2.34587 2.21555,1.17294 3.51881,2.34587 1.30326,1.17294 1.30326,1.56391 0,-1.43358 0.26065,-2.9975 0.26065,-1.56391 0.26065,-3.12782 z"
         style="font-weight:bold;font-family:'Josefin Sans';-inkscape-font-specification:'Josefin Sans Bold'"
         id="path1288" /><path
         d="m 395.74903,114.95939 q 0,-2.9975 2.08521,-4.95239 2.08522,-1.95489 4.69174,-1.95489 2.47619,0 4.56141,1.95489 2.08521,1.95489 2.08521,4.95239 0,2.9975 -2.08521,4.95239 -2.08522,1.82456 -4.56141,1.82456 -2.60652,0 -4.69174,-1.82456 -2.08521,-1.95489 -2.08521,-4.95239 z m 11.98999,67.76952 h -10.81706 v -48.87225 h 10.81706 z"
         style="font-weight:bold;font-family:'Josefin Sans';-inkscape-font-specification:'Josefin Sans Bold'"
         id="path1290" /><path
         d="m 429.50332,102.05712 h 10.81706 v 30.62661 h 12.77195 v 10.5564 h -12.77195 v 39.48878 h -10.81706 v -39.48878 h -10.94738 v -10.5564 h 10.94738 z"
         style="font-weight:bold;font-family:'Josefin Sans';-inkscape-font-specification:'Josefin Sans Bold'"
         id="path1292" /><path
         d="m 466.77626,158.22762 q 0,6.38598 4.17043,10.81706 4.30076,4.30076 11.07771,4.30076 6.77695,0 10.94739,-4.30076 4.30076,-4.43108 4.30076,-10.81706 0,-6.5163 -4.30076,-10.68673 -4.17044,-4.30076 -10.94739,-4.30076 -6.77695,0 -11.07771,4.30076 -4.17043,4.17043 -4.17043,10.68673 z m -10.94738,0.13033 q 0,-5.08271 1.95489,-9.77445 2.08521,-4.69174 5.60401,-8.21054 3.51881,-3.5188 8.34087,-5.60402 4.82206,-2.08521 10.29575,-2.08521 3.5188,0 6.5163,1.0426 2.9975,1.04261 5.21304,2.34587 2.21555,1.17294 3.51881,2.34587 1.30326,1.17294 1.30326,1.56391 0,-1.43358 0.26065,-2.9975 0.26065,-1.56391 0.26065,-3.12782 h 8.99249 v 48.87225 h -9.51379 v -4.17043 -1.17293 q 0,0.39097 -1.17294,1.43358 -1.17293,1.04261 -3.25815,2.21554 -2.08522,1.04261 -5.21304,1.95489 -2.9975,0.91229 -6.90728,0.91229 -5.47369,0 -10.29575,-1.95489 -4.82206,-2.08522 -8.34087,-5.60402 -3.5188,-3.5188 -5.60401,-8.08021 -1.95489,-4.69174 -1.95489,-9.90478 z"
         style="font-weight:bold;font-family:'Josefin Sans';-inkscape-font-specification:'Josefin Sans Bold'"
         id="path1294" /><path
         d="M 534.28492,182.72891 H 523.46786 V 84.984409 h 10.81706 z"
         style="font-weight:bold;font-family:'Josefin Sans';-inkscape-font-specification:'Josefin Sans Bold'"
         id="path1296" /></g><g
       aria-label="EYE"
       id="text2677"
       style="font-size:130.326px;font-family:'IBM 3270 Semi-Narrow';-inkscape-font-specification:'IBM 3270 Semi-Narrow';fill:#0164b2;stroke-width:1.52725"><path
         d="m 546.42402,182.72891 v -91.2282 h 54.0853 v 5.21304 h -48.74193 v 37.40356 h 43.65921 v 5.21304 h -43.65921 v 38.18552 h 50.56649 v 5.21304 z"
         style="font-family:'Josefin Sans';-inkscape-font-specification:'Josefin Sans'"
         id="path1299" /><path
         d="m 658.37404,148.19252 v 34.53639 h -6.5163 v -34.53639 q -8.47119,-14.20553 -16.94238,-28.28074 -8.34087,-14.20554 -16.81206,-28.41107 h 6.64663 q 7.16793,12.25064 14.46619,24.11031 7.29825,11.85967 14.33586,24.11031 0.39097,1.04261 0.78195,1.95489 0.39098,0.78196 0.78196,1.69424 h 0.13032 q 0.39098,-0.91228 0.65163,-1.69424 0.39098,-0.91228 0.78196,-1.95489 7.29826,-12.12032 14.33586,-23.97998 7.16793,-11.99 14.33586,-24.24064 h 6.64663 z"
         style="font-family:'Josefin Sans';-inkscape-font-specification:'Josefin Sans'"
         id="path1301" /><path
         d="m 707.89773,182.72891 v -91.2282 h 54.08529 v 5.21304 H 713.2411 v 37.40356 h 43.65921 v 5.21304 H 713.2411 v 38.18552 h 50.56649 v 5.21304 z"
         style="font-family:'Josefin Sans';-inkscape-font-specification:'Josefin Sans'"
         id="path1303" /></g></g></svg>
